<?xml version="1.0" encoding="UTF-8"?>
<svg xmlns="http://www.w3.org/2000/svg" xmlns:xlink="http://www.w3.org/1999/xlink" width="109.25" height="109.25" viewBox="0 0 109.25 109.25">
<defs>
<clipPath id="clip-0">
<path clip-rule="nonzero" d="M 0 0 L 108.503906 0 L 108.503906 108.503906 L 0 108.503906 Z M 0 0 "/>
</clipPath>
</defs>
<g clip-path="url(#clip-0)">
<path fill-rule="nonzero" fill="rgb(96.499634%, 96.499634%, 96.499634%)" fill-opacity="1" d="M 54.191406 108.660156 C 24.183594 108.660156 -0.140625 84.332031 -0.140625 54.324219 C -0.140625 24.316406 24.183594 -0.0078125 54.191406 -0.0078125 C 84.199219 -0.0078125 108.527344 24.316406 108.527344 54.324219 C 108.527344 84.332031 84.199219 108.660156 54.191406 108.660156 "/>
</g>
<path fill-rule="nonzero" fill="rgb(54.899597%, 66.699219%, 93.299866%)" fill-opacity="1" d="M 17.125 31.972656 L 27.796875 31.972656 C 29.566406 31.972656 31.136719 33.101562 31.695312 34.78125 L 45.691406 76.679688 L 35.207031 76.679688 C 33.445312 76.679688 31.878906 75.554688 31.316406 73.886719 Z M 17.125 31.972656 "/>
<path fill-rule="nonzero" fill="rgb(54.899597%, 66.699219%, 93.299866%)" fill-opacity="1" d="M 44.0625 31.972656 L 54.738281 31.972656 C 56.503906 31.972656 58.074219 33.101562 58.636719 34.78125 L 72.628906 76.679688 L 62.144531 76.679688 C 60.382812 76.679688 58.820312 75.554688 58.253906 73.886719 Z M 44.0625 31.972656 "/>
<path fill-rule="nonzero" fill="rgb(61.199951%, 91.799927%, 80.39856%)" fill-opacity="1" d="M 85.050781 50.71875 L 81.933594 50.71875 C 80.289062 50.71875 79.015625 49.28125 79.214844 47.648438 L 79.410156 46.027344 L 75.796875 48.945312 L 74.230469 46.277344 C 73.382812 44.839844 74.007812 42.988281 75.546875 42.355469 L 76.9375 41.78125 L 72.628906 40.007812 L 74.1875 37.355469 C 75.035156 35.914062 76.96875 35.5625 78.269531 36.613281 L 79.410156 37.535156 L 78.839844 32.84375 L 81.957031 32.84375 C 83.601562 32.84375 84.875 34.28125 84.675781 35.914062 L 84.480469 37.535156 L 88.09375 34.621094 L 89.660156 37.285156 C 90.503906 38.722656 89.882812 40.574219 88.34375 41.207031 L 86.949219 41.78125 L 91.261719 43.554688 L 89.703125 46.207031 C 88.855469 47.648438 86.921875 48 85.621094 46.949219 L 84.480469 46.027344 Z M 85.050781 50.71875 "/>
</svg>
